<?xml version="1.0" encoding="UTF-8"?>
<svg id="Calque_2" data-name="Calque 2" xmlns="http://www.w3.org/2000/svg" viewBox="0 0 782.62 287.37">
  <defs>
    <style>
      .cls-1 {
        fill: #83dcff;
      }
    </style>
  </defs>
  <g id="Calque_2-2" data-name="Calque 2">
    <g>
      <path class="cls-1" d="M765.44,287.37h-77.71c-4.97,0-11.13-3.49-13.69-7.75L520.77,24.18C512.79,10.88,518.95,0,534.46,0h77.71C617.14,0,623.3,3.49,625.86,7.75l153.27,255.44c7.98,13.3,1.82,24.18-13.69,24.18Z"/>
      <path class="cls-1" d="M593.01,287.37h-77.72c-4.97,0-11.13-3.49-13.69-7.75l-111.73-186.23h-11.71c-4.97,0-11.14-3.49-13.69-7.75L313.09,0h126.66c4.97,0,11.13,3.49,13.69,7.75l153.27,255.44c7.97,13.3,1.81,24.18-13.69,24.18Z"/>
      <path class="cls-1" d="M199.36,128.34l-69.79,116.32-19.52,32.54-1.46,2.43c-2.56,4.26-8.72,7.75-13.69,7.75H17.18c-15.5,0-21.66-10.88-13.69-24.18l24.11-40.18,20.78-34.63,63.13-105.22c4.65-.84,9.45-1.27,14.34-1.27,32.38,0,60.4,19,73.51,46.43Z"/>
      <path class="cls-1" d="M329.18,279.62c2.56,4.26,8.72,7.75,13.69,7.75h77.72c15.5,0,21.66-10.88,13.69-24.18L281.01,7.75c-2.56-4.26-8.72-7.75-13.69-7.75h-96.88c-4.97,0-11.13,3.49-13.69,7.75l-24.48,40.8c35.61,1.96,66.89,20.13,86.6,47.26,0,.02-.02-.02,0,0l110.3,183.81Z"/>
    </g>
  </g>
</svg>